<?xml version="1.0" encoding="utf-8"?><!-- Uploaded to: SVG Repo, www.svgrepo.com, Generator: SVG Repo Mixer Tools -->
<svg width="800px" height="800px" viewBox="0 0 24 24" fill="none" xmlns="http://www.w3.org/2000/svg">
<path fill-rule="evenodd" clip-rule="evenodd" d="M5.85015 11.817C5.84157 11.0126 6.14493 10.2376 6.69349 9.6626C7.24204 9.08761 7.99085 8.75968 8.77515 8.75098H14.6252C15.4095 8.75968 16.1583 9.08761 16.7068 9.6626C17.2554 10.2376 17.5587 11.0126 17.5502 11.817V16.927C17.5675 18.6017 16.258 19.9738 14.6252 19.992H8.77515C7.99085 19.9833 7.24204 19.6553 6.69349 19.0803C6.14493 18.5054 5.84157 17.7304 5.85015 16.926V11.817Z" stroke="#000000" stroke-width="1.5" stroke-linecap="round" stroke-linejoin="round"/>
<path fill-rule="evenodd" clip-rule="evenodd" d="M12.3719 5.837L12.7834 7.498L12.9481 8.06L13.1821 7.115C13.271 6.70798 13.5174 6.35553 13.8648 6.13864C14.2122 5.92175 14.6306 5.85907 15.0239 5.965C15.8426 6.22815 16.3123 7.10774 16.0876 7.957C15.993 8.39935 15.6236 8.72353 15.1828 8.751H9.75015C8.84861 8.70804 8.09459 8.03409 7.92982 7.124C7.583 5.82513 8.30164 4.4779 9.55515 4.077C10.1569 3.91498 10.797 4.01099 11.3283 4.34295C11.8596 4.67492 12.2363 5.21427 12.3719 5.837Z" stroke="#000000" stroke-width="1.5" stroke-linecap="round" stroke-linejoin="round"/>
<path d="M13.6796 8.23006C13.7735 7.82664 13.5226 7.42346 13.1192 7.32953C12.7157 7.23561 12.3126 7.48651 12.2186 7.88993L13.6796 8.23006ZM12.0578 8.58093C11.9638 8.98436 12.2147 9.38754 12.6182 9.48146C13.0216 9.57539 13.4248 9.32448 13.5187 8.92106L12.0578 8.58093ZM12.4501 8.751C12.4501 8.33678 12.1143 8.001 11.7001 8.001C11.2859 8.001 10.9501 8.33678 10.9501 8.751H12.4501ZM10.9501 19.992C10.9501 20.4062 11.2859 20.742 11.7001 20.742C12.1143 20.742 12.4501 20.4062 12.4501 19.992H10.9501ZM12.2186 7.88993L12.0578 8.58093L13.5187 8.92106L13.6796 8.23006L12.2186 7.88993ZM10.9501 8.751V19.992H12.4501V8.751H10.9501Z" fill="#000000"/>
</svg>