<svg xmlns:xlink="http://www.w3.org/1999/xlink" class="img-fluid" id="outputsvg" xmlns="http://www.w3.org/2000/svg" style=" transform-origin: 50% 50%; cursor: move; max-height: 293.38px;" width="2160" height="2160" viewBox="0 0 21600 21600"><g id="l33wl1xeMMCakAk6Fw5M1MZ" fill="#6E41FE" style=""><g style="" fill="#6E41FE"><path id="pSKt77b2T" d="M4840 17069 c-111 -19 -234 -59 -305 -97 l-50 -27 -3 -313 c-1 -171 0 -312 3 -312 3 0 40 22 83 49 116 72 171 98 262 122 109 28 229 25 261 -8 47 -47 6 -89 -230 -235 -266 -165 -383 -352 -367 -589 16 -240 135 -416 354 -524 99 -48 204 -68 354 -67 204 1 363 56 526 180 l72 55 0 318 c0 176 -3 319 -6 319 -3 0 -43 -34 -87 -76 -87 -82 -215 -170 -284 -197 -68 -26 -144 -29 -182 -6 -75 45 -17 115 205 247 255 152 373 279 419 453 44 165 -16 374 -148 515 -102 109 -221 168 -401 199 -122 20 -340 18 -476 -6z" fill="#6E41FE"></path><path id="pTjmEqJ9D" d="M17678 17070 c-243 -46 -410 -132 -569 -297 -122 -125 -197 -257 -241 -424 -19 -72 -22 -110 -22 -259 1 -148 4 -187 23 -255 137 -501 535 -781 1094 -769 204 4 346 31 540 101 l97 36 0 349 0 348 -92 -64 c-162 -111 -300 -161 -454 -165 -105 -3 -167 10 -245 51 -128 67 -199 190 -199 349 0 196 129 352 327 394 189 40 404 -9 606 -138 32 -21 62 -37 67 -37 6 0 8 122 7 313 l-2 312 -65 32 c-95 47 -260 99 -382 121 -145 26 -360 27 -490 2z m437 -96 c111 -18 250 -57 330 -92 33 -14 62 -27 63 -28 6 -4 7 -384 1 -384 -3 0 -43 16 -89 36 -216 94 -464 99 -639 13 -77 -38 -179 -136 -215 -206 -79 -157 -77 -356 5 -500 36 -63 133 -155 200 -188 95 -49 257 -70 381 -50 77 12 182 47 260 86 43 22 79 39 80 39 7 0 -2 -424 -9 -430 -26 -22 -215 -73 -328 -88 -245 -34 -426 -20 -629 49 -264 89 -480 331 -558 624 -22 83 -31 300 -17 390 14 87 62 222 104 293 138 235 402 405 680 438 28 4 52 8 55 11 10 9 243 1 325 -13z" fill="#6E41FE"></path><path id="pbrheH8Ml" d="M742 16078 l3 -993 380 0 380 0 3 993 2 992 -385 0 -385 0 2 -992z" fill="#6E41FE"></path><path id="p15Qe3vpeN" d="M2188 16368 l-3 -703 -264 -2 c-145 -1 -265 -4 -268 -6 -2 -2 -5 -131 -6 -286 -2 -274 -1 -282 18 -287 11 -2 427 -3 925 -2 l905 3 0 288 0 288 -267 0 -268 0 0 705 0 704 -385 0 -385 0 -2 -702z" fill="#6E41FE"></path><path id="pTZ5vC5HJ" d="M6770 17061 c0 -5 11 -33 24 -62 13 -30 75 -173 136 -319 62 -146 150 -355 197 -465 46 -110 107 -254 135 -320 28 -66 77 -183 110 -260 32 -77 68 -162 80 -190 11 -27 51 -120 87 -205 l67 -155 379 0 380 0 18 35 c9 19 37 82 61 140 24 58 79 191 124 295 152 363 240 571 292 695 105 251 133 316 156 368 13 29 24 54 24 57 0 5 115 278 140 332 11 24 20 47 20 53 0 7 -132 9 -397 8 l-398 -3 -47 -125 c-26 -69 -49 -133 -51 -142 -5 -17 -29 -18 -320 -18 l-314 0 -33 88 c-19 48 -43 112 -55 142 l-21 55 -397 3 c-228 1 -397 -2 -397 -7z m749 -166 c15 -38 40 -103 55 -143 l28 -72 386 2 386 3 51 140 51 140 287 3 c270 2 286 1 280 -15 -7 -22 -258 -621 -353 -843 -15 -36 -51 -121 -80 -190 -29 -69 -65 -154 -80 -190 -15 -36 -51 -121 -80 -190 -77 -185 -109 -260 -131 -308 l-19 -42 -316 2 -316 3 -24 60 c-13 33 -28 69 -34 80 -14 30 -190 447 -190 451 0 2 -9 23 -20 47 -24 53 -200 468 -200 473 0 2 -11 27 -24 56 -24 53 -58 135 -156 368 -29 69 -61 145 -71 169 -33 76 -51 72 262 69 l281 -3 27 -70z" fill="#6E41FE"></path><path id="pxiUEE8jA" d="M7710 16381 c0 -5 43 -128 95 -272 147 -407 178 -489 184 -489 3 0 51 127 105 283 55 155 114 322 133 370 18 49 33 95 33 103 0 12 -45 14 -275 14 -156 0 -275 -4 -275 -9z m404 -113 c-1 -7 -27 -83 -58 -169 -31 -87 -56 -162 -56 -168 0 -35 -21 3 -59 107 -24 64 -54 145 -67 179 -12 34 -21 63 -19 65 2 1 61 2 132 1 99 -1 128 -5 127 -15z" fill="#6E41FE"></path><path id="pk1AcNTnC" d="M10177 17064 c-3 -4 -6 -449 -7 -989 0 -856 2 -984 15 -988 8 -4 161 -6 340 -6 321 0 325 0 349 22 13 12 117 144 231 292 114 149 215 278 224 288 17 17 22 12 117 -110 55 -70 165 -210 244 -311 l143 -183 336 3 336 3 3 993 2 992 -385 0 -385 0 0 -390 c0 -214 -3 -390 -8 -390 -4 0 -12 8 -18 18 -10 15 -347 446 -364 465 -4 4 -94 -104 -199 -240 -106 -136 -197 -250 -203 -252 -5 -2 -9 5 -8 15 1 11 2 189 1 397 l-1 377 -378 0 c-208 0 -381 -3 -385 -6z m663 -582 c0 -269 3 -491 6 -495 3 -3 41 39 83 93 42 54 150 193 239 309 90 116 168 213 172 216 10 6 17 -3 305 -373 99 -127 183 -231 188 -232 4 0 7 218 7 485 l0 485 280 0 280 0 0 -880 c0 -484 1 -883 3 -887 1 -5 -117 -9 -263 -11 l-265 -2 -260 334 c-143 185 -265 334 -272 333 -6 -1 -46 -48 -90 -104 -43 -55 -159 -205 -257 -332 l-179 -231 -268 0 -269 0 0 890 0 890 280 0 280 0 0 -488z" fill="#6E41FE"></path><path id="pXhJ2X30u" d="M12574 17044 c4 -14 34 -89 67 -167 33 -78 90 -212 126 -297 36 -85 85 -200 108 -255 24 -55 80 -188 125 -295 45 -107 126 -298 180 -425 53 -126 124 -293 156 -370 32 -77 63 -143 69 -147 5 -4 178 -7 384 -5 l374 2 32 75 c18 41 56 131 85 200 29 69 63 149 76 178 13 29 24 54 24 57 0 5 115 278 140 332 11 24 20 45 20 47 0 5 112 272 135 321 7 17 23 54 35 84 11 30 30 73 40 96 10 23 28 66 40 95 12 29 30 72 40 95 10 23 29 66 40 96 12 29 32 76 44 104 12 27 33 77 46 110 13 33 27 65 32 71 4 6 5 14 1 17 -3 4 -183 7 -399 7 l-393 0 -19 -52 c-11 -29 -35 -95 -53 -145 l-34 -93 -312 0 -312 0 -19 43 c-10 23 -36 88 -57 145 l-38 102 -395 0 -394 0 6 -26z m767 -216 l54 -143 386 -3 386 -2 53 145 53 145 283 0 c167 0 284 -4 284 -9 0 -5 -31 -83 -69 -173 -38 -90 -106 -251 -151 -358 -129 -308 -233 -554 -321 -762 -45 -106 -108 -257 -141 -335 l-61 -143 -314 0 -314 0 -28 63 c-28 61 -55 125 -161 377 -29 69 -78 186 -110 260 -32 74 -81 191 -110 260 -29 69 -85 203 -126 298 -41 95 -74 175 -74 177 0 3 -9 24 -19 48 -39 84 -121 280 -121 288 0 5 127 9 283 9 l283 0 55 -142z" fill="#6E41FE"></path><path id="p10QhtTm9u" d="M13517 16338 c8 -29 19 -60 23 -68 4 -8 24 -60 43 -115 34 -95 163 -448 186 -509 7 -16 14 -27 16 -24 5 5 275 756 275 764 0 2 -126 4 -279 4 l-280 0 16 -52z m393 -62 c0 -25 -124 -356 -131 -349 -6 7 -129 338 -129 348 0 7 39 10 147 10 64 0 113 -4 113 -9z" fill="#6E41FE"></path><path id="pxXtS4KQW" d="M15490 16368 l1 -703 -268 -2 -268 -2 0 -288 0 -288 925 0 925 0 0 288 0 288 -270 2 -270 2 -3 703 -2 702 -385 0 -385 0 0 -702z m672 -100 l3 -703 270 -1 270 -2 0 -183 0 -184 -825 0 -825 0 -3 183 c-1 100 1 182 5 182 5 0 127 1 273 3 l265 2 3 703 2 702 280 0 280 0 2 -702z" fill="#6E41FE"></path><path id="p6Q4q4JkP" d="M18737 17064 c-3 -4 -6 -449 -7 -989 0 -877 2 -983 15 -989 9 -3 182 -5 386 -3 l371 2 -2 338 -1 337 23 0 c13 0 143 1 291 2 173 2 267 -1 267 -7 0 -5 1 -158 3 -340 l2 -330 385 0 385 0 0 990 0 990 -385 0 -385 0 -2 -350 -2 -350 -288 0 c-249 0 -288 2 -289 15 -1 8 -2 167 -3 353 l-1 337 -378 0 c-208 0 -381 -3 -385 -6z m664 -431 c1 -186 2 -345 3 -353 1 -13 51 -15 389 -15 l388 0 2 350 2 350 283 3 282 2 0 -890 0 -890 -282 2 -283 3 -5 333 -5 333 -382 2 c-320 2 -384 0 -388 -12 -3 -8 -5 -158 -5 -335 l1 -321 -280 -3 -281 -2 0 890 0 890 280 0 280 0 1 -337z" fill="#6E41FE"></path><path id="pkEw4ojzQ" d="M3530 16172 l0 -70 38 -13 c111 -36 195 -107 236 -202 42 -95 42 -102 -7 -121 -63 -24 -129 -86 -162 -152 -27 -54 -30 -68 -30 -164 0 -91 3 -112 24 -155 34 -68 119 -156 185 -189 153 -78 356 -41 472 86 95 104 125 195 120 362 -7 216 -91 382 -265 520 -127 101 -274 149 -488 162 l-123 7 0 -71z" fill="#6E41FE"></path><path id="pNw7vmcid" d="M4840 14189 c-111 -19 -234 -59 -305 -97 l-50 -27 -3 -313 c-1 -171 0 -312 3 -312 3 0 40 22 83 49 116 72 171 98 262 122 109 28 229 25 261 -8 47 -47 6 -89 -230 -235 -266 -165 -383 -352 -367 -589 16 -240 136 -416 356 -524 98 -48 202 -68 352 -67 204 1 363 56 526 180 l72 55 0 318 c0 176 -3 319 -6 319 -3 0 -43 -34 -87 -76 -87 -82 -215 -170 -284 -197 -106 -41 -213 -21 -213 40 0 40 76 106 215 188 206 120 314 213 381 327 122 209 81 482 -99 666 -98 100 -218 158 -391 187 -122 20 -340 18 -476 -6z m529 -107 c224 -62 353 -194 398 -406 42 -206 -77 -391 -357 -551 -230 -132 -321 -228 -300 -318 11 -52 34 -83 82 -114 37 -22 53 -26 123 -26 97 0 173 28 294 108 44 29 82 50 85 48 2 -3 2 -83 0 -180 l-5 -175 -27 -24 c-45 -39 -193 -112 -276 -134 -150 -41 -353 -27 -486 34 -200 92 -303 253 -303 471 1 108 22 177 83 264 55 79 107 121 291 236 85 53 166 108 182 123 41 39 70 106 63 145 -18 94 -84 138 -222 145 -110 6 -203 -13 -319 -63 -44 -19 -83 -35 -87 -35 -3 0 -7 83 -8 185 l-1 185 43 20 c62 28 130 49 238 70 132 26 400 21 509 -8z" fill="#6E41FE"></path><path id="pd1MlVbd" d="M17678 14190 c-243 -46 -410 -132 -569 -297 -122 -125 -197 -257 -241 -424 -19 -72 -22 -110 -22 -259 1 -148 4 -187 23 -255 137 -501 535 -781 1094 -769 204 4 346 31 540 101 l97 36 0 349 0 348 -92 -64 c-162 -111 -300 -161 -454 -165 -105 -3 -167 10 -245 51 -128 67 -199 190 -199 349 0 196 129 352 327 394 189 40 404 -9 606 -138 32 -21 62 -37 67 -37 6 0 8 122 7 313 l-2 312 -65 32 c-95 47 -260 99 -382 121 -145 26 -360 27 -490 2z m437 -96 c111 -18 250 -57 330 -92 33 -14 62 -27 63 -28 6 -4 7 -384 1 -384 -3 0 -43 16 -89 36 -216 94 -464 99 -639 13 -77 -38 -179 -136 -215 -206 -79 -157 -77 -356 5 -500 36 -63 133 -155 200 -188 95 -49 257 -70 381 -50 77 12 182 47 260 86 43 22 79 39 80 39 7 0 -2 -424 -9 -430 -26 -22 -215 -73 -328 -88 -245 -34 -426 -20 -629 49 -264 89 -480 331 -558 624 -22 83 -31 300 -17 390 14 87 62 222 104 293 138 235 402 405 680 438 28 4 52 8 55 11 10 9 243 1 325 -13z" fill="#6E41FE"></path><path id="pczf0B5cO" d="M742 13198 l3 -993 380 0 380 0 3 993 2 992 -385 0 -385 0 2 -992z m658 2 l0 -890 -280 0 -280 0 0 890 0 890 280 0 280 0 0 -890z" fill="#6E41FE"></path><path id="ppL9T4eGc" d="M2188 13488 l-3 -703 -264 -2 c-145 -1 -265 -4 -268 -6 -2 -2 -5 -131 -6 -286 -2 -274 -1 -282 18 -287 11 -2 427 -3 925 -2 l905 3 0 288 0 288 -267 0 -268 0 0 705 0 704 -385 0 -385 0 -2 -702z m674 -100 l3 -703 265 -1 265 -1 3 -187 2 -186 -825 0 -825 0 0 185 0 185 243 1 c133 1 253 2 267 3 l25 1 3 703 2 702 285 0 285 0 2 -702z" fill="#6E41FE"></path><path id="phJegqRoR" d="M6770 14181 c0 -5 11 -33 24 -62 13 -30 75 -173 136 -319 62 -146 150 -355 197 -465 46 -110 107 -254 135 -320 28 -66 77 -183 110 -260 32 -77 68 -162 80 -190 11 -27 51 -120 87 -205 l67 -155 379 0 380 0 18 35 c9 19 37 82 61 140 24 58 79 191 124 295 152 363 240 571 292 695 105 251 133 316 156 368 13 29 24 54 24 57 0 5 115 278 140 332 11 24 20 47 20 53 0 7 -132 9 -397 8 l-398 -3 -47 -125 c-26 -69 -49 -133 -51 -142 -5 -17 -29 -18 -320 -18 l-314 0 -33 88 c-19 48 -43 112 -55 142 l-21 55 -397 3 c-228 1 -397 -2 -397 -7z m1344 -793 c-1 -7 -27 -83 -58 -169 -31 -87 -56 -162 -56 -168 0 -35 -21 3 -59 107 -24 64 -54 145 -67 179 -12 34 -21 63 -19 65 2 1 61 2 132 1 99 -1 128 -5 127 -15z" fill="#6E41FE"></path><path id="p6CcIC8if" d="M10177 14184 c-3 -4 -6 -449 -7 -989 0 -856 2 -984 15 -988 8 -4 161 -6 340 -6 321 0 325 0 349 22 13 12 117 144 231 292 114 149 215 278 224 288 17 17 22 12 117 -110 55 -70 165 -210 244 -311 l143 -183 336 3 336 3 3 993 2 992 -385 0 -385 0 0 -390 c0 -214 -3 -390 -8 -390 -4 0 -12 8 -18 18 -10 15 -347 446 -364 465 -4 4 -94 -104 -199 -240 -106 -136 -197 -250 -203 -252 -5 -2 -9 5 -8 15 1 11 2 189 1 397 l-1 377 -378 0 c-208 0 -381 -3 -385 -6z m663 -582 c0 -269 3 -491 6 -495 3 -3 41 39 83 93 42 54 150 193 239 309 90 116 168 213 172 216 10 6 17 -3 305 -373 99 -127 183 -231 188 -232 4 0 7 218 7 485 l0 485 280 0 280 0 0 -880 c0 -484 1 -883 3 -887 1 -5 -117 -9 -263 -11 l-265 -2 -260 334 c-143 185 -265 334 -272 333 -6 -1 -46 -48 -90 -104 -43 -55 -159 -205 -257 -332 l-179 -231 -268 0 -269 0 0 890 0 890 280 0 280 0 0 -488z" fill="#6E41FE"></path><path id="p13QVyBuKx" d="M12574 14164 c4 -14 34 -89 67 -167 33 -78 90 -212 126 -297 36 -85 85 -200 108 -255 24 -55 80 -188 125 -295 45 -107 126 -298 180 -425 53 -126 124 -293 156 -370 32 -77 63 -143 69 -147 5 -4 178 -7 384 -5 l374 2 32 75 c18 41 56 131 85 200 29 69 63 149 76 178 13 29 24 54 24 57 0 5 115 278 140 332 11 24 20 45 20 47 0 5 112 272 135 321 7 17 23 54 35 84 11 30 30 73 40 96 10 23 28 66 40 95 12 29 30 72 40 95 10 23 29 66 40 96 12 29 32 76 44 104 12 27 33 77 46 110 13 33 27 65 32 71 4 6 5 14 1 17 -3 4 -183 7 -399 7 l-393 0 -19 -52 c-11 -29 -35 -95 -53 -145 l-34 -93 -312 0 -312 0 -19 43 c-10 23 -36 88 -57 145 l-38 102 -395 0 -394 0 6 -26z m767 -216 l54 -143 386 -3 386 -2 53 145 53 145 283 0 c167 0 284 -4 284 -9 0 -5 -31 -83 -69 -173 -38 -90 -106 -251 -151 -358 -129 -308 -233 -554 -321 -762 -45 -106 -108 -257 -141 -335 l-61 -143 -314 0 -314 0 -28 63 c-28 61 -55 125 -161 377 -29 69 -78 186 -110 260 -32 74 -81 191 -110 260 -29 69 -85 203 -126 298 -41 95 -74 175 -74 177 0 3 -9 24 -19 48 -39 84 -121 280 -121 288 0 5 127 9 283 9 l283 0 55 -142z" fill="#6E41FE"></path><path id="pq8N7FT74" d="M13517 13458 c8 -29 19 -60 23 -68 4 -8 24 -60 43 -115 34 -95 163 -448 186 -509 7 -16 14 -27 16 -24 5 5 275 756 275 764 0 2 -126 4 -279 4 l-280 0 16 -52z m393 -62 c0 -25 -124 -356 -131 -349 -6 7 -129 338 -129 348 0 7 39 10 147 10 64 0 113 -4 113 -9z" fill="#6E41FE"></path><path id="p11R3hZ6Eo" d="M15490 13488 l1 -703 -268 -2 -268 -2 0 -288 0 -288 925 0 925 0 0 288 0 288 -270 2 -270 2 -3 703 -2 702 -385 0 -385 0 0 -702z m672 -100 l3 -703 270 -1 270 -2 0 -183 0 -184 -825 0 -825 0 -3 183 c-1 100 1 182 5 182 5 0 127 1 273 3 l265 2 3 703 2 702 280 0 280 0 2 -702z" fill="#6E41FE"></path><path id="p1F2TkK1UY" d="M18737 14184 c-3 -4 -6 -449 -7 -989 0 -877 2 -983 15 -989 9 -3 182 -5 386 -3 l371 2 -2 338 -1 337 23 0 c13 0 143 1 291 2 173 2 267 -1 267 -7 0 -5 1 -158 3 -340 l2 -330 385 0 385 0 0 990 0 990 -385 0 -385 0 -2 -350 -2 -350 -288 0 c-249 0 -288 2 -289 15 -1 8 -2 167 -3 353 l-1 337 -378 0 c-208 0 -381 -3 -385 -6z m664 -431 c1 -186 2 -345 3 -353 1 -13 51 -15 389 -15 l388 0 2 350 2 350 283 3 282 2 0 -890 0 -890 -282 2 -283 3 -5 333 -5 333 -382 2 c-320 2 -384 0 -388 -12 -3 -8 -5 -158 -5 -335 l1 -321 -280 -3 -281 -2 0 890 0 890 280 0 280 0 1 -337z" fill="#6E41FE"></path><path id="p09fgpvBO" d="M3530 13292 l0 -70 38 -13 c111 -36 195 -107 236 -202 42 -95 42 -102 -7 -121 -63 -24 -129 -86 -162 -152 -27 -54 -30 -68 -30 -164 0 -91 3 -112 24 -155 34 -68 119 -156 185 -189 153 -78 356 -41 472 86 93 102 124 196 120 358 -6 218 -91 386 -265 524 -127 101 -274 149 -488 162 l-123 7 0 -71z m348 -74 c285 -87 462 -354 422 -635 -13 -93 -43 -158 -100 -212 -72 -71 -175 -100 -274 -77 -146 34 -237 158 -221 298 13 114 69 179 183 215 l54 17 -5 66 c-9 122 -53 213 -151 311 l-51 51 40 -7 c22 -4 68 -16 103 -27z" fill="#6E41FE"></path><path id="p167tIeCRl" d="M4840 11309 c-111 -19 -234 -59 -305 -97 l-50 -27 -3 -313 c-1 -171 0 -312 3 -312 3 0 40 22 83 49 116 72 171 98 262 122 109 28 229 25 261 -8 47 -47 6 -89 -230 -235 -266 -165 -383 -352 -367 -589 16 -240 136 -416 356 -524 98 -48 202 -68 352 -67 204 1 363 56 526 180 l72 55 0 318 c0 176 -3 319 -6 319 -3 0 -43 -34 -87 -76 -87 -82 -215 -170 -284 -197 -106 -41 -213 -21 -213 40 0 40 76 106 215 188 206 120 314 213 381 327 122 209 81 482 -99 666 -98 100 -218 158 -391 187 -122 20 -340 18 -476 -6z m529 -107 c224 -62 353 -194 398 -406 42 -206 -77 -391 -357 -551 -230 -132 -321 -228 -300 -318 11 -52 34 -83 82 -114 37 -22 53 -26 123 -26 97 0 173 28 294 108 44 29 82 50 85 48 2 -3 2 -83 0 -180 l-5 -175 -27 -24 c-45 -39 -193 -112 -276 -134 -150 -41 -353 -27 -486 34 -200 92 -303 253 -303 471 1 108 22 177 83 264 55 79 107 121 291 236 85 53 166 108 182 123 41 39 70 106 63 145 -18 94 -84 138 -222 145 -110 6 -203 -13 -319 -63 -44 -19 -83 -35 -87 -35 -3 0 -7 83 -8 185 l-1 185 43 20 c62 28 130 49 238 70 132 26 400 21 509 -8z" fill="#6E41FE"></path><path id="pZOHeCkc4" d="M17678 11310 c-243 -46 -410 -132 -569 -297 -122 -125 -197 -257 -241 -424 -19 -72 -22 -110 -22 -259 1 -148 4 -187 23 -255 137 -501 535 -781 1094 -769 204 4 346 31 540 101 l97 36 0 349 0 348 -92 -64 c-162 -111 -300 -161 -454 -165 -105 -3 -167 10 -245 51 -128 67 -199 190 -199 349 0 196 129 352 327 394 189 40 404 -9 606 -138 32 -21 62 -37 67 -37 6 0 8 122 7 313 l-2 312 -65 32 c-95 47 -260 99 -382 121 -145 26 -360 27 -490 2z" fill="#6E41FE"></path><path id="pCq2CZ5KT" d="M742 10318 l3 -993 380 0 380 0 3 993 2 992 -385 0 -385 0 2 -992z m658 2 l0 -890 -280 0 -280 0 0 890 0 890 280 0 280 0 0 -890z" fill="#6E41FE"></path><path id="p3iYO8uIs" d="M2188 10608 l-3 -703 -264 -2 c-145 -1 -265 -4 -268 -6 -2 -2 -5 -131 -6 -286 -2 -274 -1 -282 18 -287 11 -2 427 -3 925 -2 l905 3 0 288 0 288 -267 0 -268 0 0 705 0 704 -385 0 -385 0 -2 -702z m674 -100 l3 -703 265 -1 265 -1 3 -187 2 -186 -825 0 -825 0 0 185 0 185 243 1 c133 1 253 2 267 3 l25 1 3 703 2 702 285 0 285 0 2 -702z" fill="#6E41FE"></path><path id="pJhCrt3aN" d="M6770 11301 c0 -5 11 -33 24 -62 13 -30 75 -173 136 -319 62 -146 150 -355 197 -465 46 -110 107 -254 135 -320 28 -66 77 -183 110 -260 32 -77 68 -162 80 -190 11 -27 51 -120 87 -205 l67 -155 379 0 380 0 18 35 c9 19 37 82 61 140 24 58 79 191 124 295 152 363 240 571 292 695 105 251 133 316 156 368 13 29 24 54 24 57 0 5 115 278 140 332 11 24 20 47 20 53 0 7 -132 9 -397 8 l-398 -3 -47 -125 c-26 -69 -49 -133 -51 -142 -5 -17 -29 -18 -320 -18 l-314 0 -33 88 c-19 48 -43 112 -55 142 l-21 55 -397 3 c-228 1 -397 -2 -397 -7z m749 -166 c15 -38 40 -103 55 -143 l28 -72 386 2 386 3 51 140 51 140 287 3 c270 2 286 1 280 -15 -7 -22 -258 -621 -353 -843 -15 -36 -51 -121 -80 -190 -29 -69 -65 -154 -80 -190 -15 -36 -51 -121 -80 -190 -77 -185 -109 -260 -131 -308 l-19 -42 -316 2 -316 3 -24 60 c-13 33 -28 69 -34 80 -14 30 -190 447 -190 451 0 2 -9 23 -20 47 -24 53 -200 468 -200 473 0 2 -11 27 -24 56 -24 53 -58 135 -156 368 -29 69 -61 145 -71 169 -33 76 -51 72 262 69 l281 -3 27 -70z" fill="#6E41FE"></path><path id="p7jap6agQ" d="M7710 10621 c0 -5 43 -128 95 -272 147 -407 178 -489 184 -489 3 0 51 127 105 283 55 155 114 322 133 370 18 49 33 95 33 103 0 12 -45 14 -275 14 -156 0 -275 -4 -275 -9z m404 -113 c-1 -7 -27 -83 -58 -169 -31 -87 -56 -162 -56 -168 0 -35 -21 3 -59 107 -24 64 -54 145 -67 179 -12 34 -21 63 -19 65 2 1 61 2 132 1 99 -1 128 -5 127 -15z" fill="#6E41FE"></path><path id="piX6s4qan" d="M10177 11304 c-3 -4 -6 -449 -7 -989 0 -856 2 -984 15 -988 8 -4 161 -6 340 -6 321 0 325 0 349 22 13 12 117 144 231 292 114 149 215 278 224 288 17 17 22 12 117 -110 55 -70 165 -210 244 -311 l143 -183 336 3 336 3 3 993 2 992 -385 0 -385 0 0 -390 c0 -214 -3 -390 -8 -390 -4 0 -12 8 -18 18 -10 15 -347 446 -364 465 -4 4 -94 -104 -199 -240 -106 -136 -197 -250 -203 -252 -5 -2 -9 5 -8 15 1 11 2 189 1 397 l-1 377 -378 0 c-208 0 -381 -3 -385 -6z" fill="#6E41FE"></path><path id="p17Hs36tWG" d="M12574 11284 c4 -14 34 -89 67 -167 33 -78 90 -212 126 -297 36 -85 85 -200 108 -255 24 -55 80 -188 125 -295 45 -107 126 -298 180 -425 53 -126 124 -293 156 -370 32 -77 63 -143 69 -147 5 -4 178 -7 384 -5 l374 2 32 75 c18 41 56 131 85 200 29 69 63 149 76 178 13 29 24 54 24 57 0 5 115 278 140 332 11 24 20 45 20 47 0 5 112 272 135 321 7 17 23 54 35 84 11 30 30 73 40 96 10 23 28 66 40 95 12 29 30 72 40 95 10 23 29 66 40 96 12 29 32 76 44 104 12 27 33 77 46 110 13 33 27 65 32 71 4 6 5 14 1 17 -3 4 -183 7 -399 7 l-393 0 -19 -52 c-11 -29 -35 -95 -53 -145 l-34 -93 -312 0 -312 0 -19 43 c-10 23 -36 88 -57 145 l-38 102 -395 0 -394 0 6 -26z m1336 -768 c0 -25 -124 -356 -131 -349 -6 7 -129 338 -129 348 0 7 39 10 147 10 64 0 113 -4 113 -9z" fill="#6E41FE"></path><path id="pgtay2m7i" d="M15490 10608 l1 -703 -268 -2 -268 -2 0 -288 0 -288 925 0 925 0 0 288 0 288 -270 2 -270 2 -3 703 -2 702 -385 0 -385 0 0 -702z" fill="#6E41FE"></path><path id="pkSiEAYDe" d="M18737 11304 c-3 -4 -6 -449 -7 -989 0 -877 2 -983 15 -989 9 -3 182 -5 386 -3 l371 2 -2 338 -1 337 23 0 c13 0 143 1 291 2 173 2 267 -1 267 -7 0 -5 1 -158 3 -340 l2 -330 385 0 385 0 0 990 0 990 -385 0 -385 0 -2 -350 -2 -350 -288 0 c-249 0 -288 2 -289 15 -1 8 -2 167 -3 353 l-1 337 -378 0 c-208 0 -381 -3 -385 -6z" fill="#6E41FE"></path><path id="pPvIfPAH1" d="M3530 10412 l0 -70 38 -13 c111 -36 195 -107 236 -202 42 -95 42 -102 -7 -121 -63 -24 -129 -86 -162 -152 -27 -54 -30 -68 -30 -164 0 -91 3 -112 24 -155 34 -68 119 -156 185 -189 153 -78 356 -41 472 86 93 102 124 196 120 358 -6 218 -91 386 -265 524 -127 101 -274 149 -488 162 l-123 7 0 -71z m348 -74 c285 -87 462 -354 422 -635 -13 -93 -43 -158 -100 -212 -72 -71 -175 -100 -274 -77 -146 34 -237 158 -221 298 13 114 69 179 183 215 l54 17 -5 66 c-9 122 -53 213 -151 311 l-51 51 40 -7 c22 -4 68 -16 103 -27z" fill="#6E41FE"></path><path id="phGp1r4hQ" d="M4840 8429 c-111 -19 -234 -59 -305 -97 l-50 -27 -3 -313 c-1 -171 0 -312 3 -312 3 0 40 22 83 49 116 72 171 98 262 122 109 28 229 25 261 -8 47 -47 6 -89 -230 -235 -266 -165 -383 -352 -367 -589 16 -240 136 -416 356 -524 98 -48 202 -68 352 -67 204 1 363 56 526 180 l72 55 0 318 c0 176 -3 319 -6 319 -3 0 -43 -34 -87 -76 -87 -82 -215 -170 -284 -197 -106 -41 -213 -21 -213 40 0 40 76 106 215 188 206 120 314 213 381 327 122 209 81 482 -99 666 -98 100 -218 158 -391 187 -122 20 -340 18 -476 -6z m529 -107 c224 -62 353 -194 398 -406 42 -206 -77 -391 -357 -551 -230 -132 -321 -228 -300 -318 11 -52 34 -83 82 -114 37 -22 53 -26 123 -26 97 0 173 28 294 108 44 29 82 50 85 48 2 -3 2 -83 0 -180 l-5 -175 -27 -24 c-45 -39 -193 -112 -276 -134 -150 -41 -353 -27 -486 34 -200 92 -303 253 -303 471 1 108 22 177 83 264 55 79 107 121 291 236 85 53 166 108 182 123 41 39 70 106 63 145 -18 94 -84 138 -222 145 -110 6 -203 -13 -319 -63 -44 -19 -83 -35 -87 -35 -3 0 -7 83 -8 185 l-1 185 43 20 c62 28 130 49 238 70 132 26 400 21 509 -8z" fill="#6E41FE"></path><path id="puIUGmxXf" d="M17678 8430 c-243 -46 -410 -132 -569 -297 -122 -125 -197 -257 -241 -424 -19 -72 -22 -110 -22 -259 1 -148 4 -187 23 -255 137 -501 535 -781 1094 -769 204 4 346 31 540 101 l97 36 0 349 0 348 -92 -64 c-162 -111 -300 -161 -454 -165 -105 -3 -167 10 -245 51 -128 67 -199 190 -199 349 0 196 129 352 327 394 189 40 404 -9 606 -138 32 -21 62 -37 67 -37 6 0 8 122 7 313 l-2 312 -65 32 c-95 47 -260 99 -382 121 -145 26 -360 27 -490 2z m437 -96 c111 -18 250 -57 330 -92 33 -14 62 -27 63 -28 6 -4 7 -384 1 -384 -3 0 -43 16 -89 36 -216 94 -464 99 -639 13 -77 -38 -179 -136 -215 -206 -79 -157 -77 -356 5 -500 36 -63 133 -155 200 -188 95 -49 257 -70 381 -50 77 12 182 47 260 86 43 22 79 39 80 39 7 0 -2 -424 -9 -430 -26 -22 -215 -73 -328 -88 -245 -34 -426 -20 -629 49 -264 89 -480 331 -558 624 -22 83 -31 300 -17 390 14 87 62 222 104 293 138 235 402 405 680 438 28 4 52 8 55 11 10 9 243 1 325 -13z" fill="#6E41FE"></path><path id="pr1VFi1iG" d="M742 7438 l3 -993 380 0 380 0 3 993 2 992 -385 0 -385 0 2 -992z m658 2 l0 -890 -280 0 -280 0 0 890 0 890 280 0 280 0 0 -890z" fill="#6E41FE"></path><path id="p175l5qREK" d="M2188 7728 l-3 -703 -264 -2 c-145 -1 -265 -4 -268 -6 -2 -2 -5 -131 -6 -286 -2 -274 -1 -282 18 -287 11 -2 427 -3 925 -2 l905 3 0 288 0 288 -267 0 -268 0 0 705 0 704 -385 0 -385 0 -2 -702z m674 -100 l3 -703 265 -1 265 -1 3 -187 2 -186 -825 0 -825 0 0 185 0 185 243 1 c133 1 253 2 267 3 l25 1 3 703 2 702 285 0 285 0 2 -702z" fill="#6E41FE"></path><path id="p16fDStWBs" d="M6770 8421 c0 -5 11 -33 24 -62 13 -30 75 -173 136 -319 62 -146 150 -355 197 -465 46 -110 107 -254 135 -320 28 -66 77 -183 110 -260 32 -77 68 -162 80 -190 11 -27 51 -120 87 -205 l67 -155 379 0 380 0 18 35 c9 19 37 82 61 140 24 58 79 191 124 295 152 363 240 571 292 695 105 251 133 316 156 368 13 29 24 54 24 57 0 5 115 278 140 332 11 24 20 47 20 53 0 7 -132 9 -397 8 l-398 -3 -47 -125 c-26 -69 -49 -133 -51 -142 -5 -17 -29 -18 -320 -18 l-314 0 -33 88 c-19 48 -43 112 -55 142 l-21 55 -397 3 c-228 1 -397 -2 -397 -7z m1344 -793 c-1 -7 -27 -83 -58 -169 -31 -87 -56 -162 -56 -168 0 -35 -21 3 -59 107 -24 64 -54 145 -67 179 -12 34 -21 63 -19 65 2 1 61 2 132 1 99 -1 128 -5 127 -15z" fill="#6E41FE"></path><path id="pSDD231pU" d="M10177 8424 c-3 -4 -6 -449 -7 -989 0 -856 2 -984 15 -988 8 -4 161 -6 340 -6 321 0 325 0 349 22 13 12 117 144 231 292 114 149 215 278 224 288 17 17 22 12 117 -110 55 -70 165 -210 244 -311 l143 -183 336 3 336 3 3 993 2 992 -385 0 -385 0 0 -390 c0 -214 -3 -390 -8 -390 -4 0 -12 8 -18 18 -10 15 -347 446 -364 465 -4 4 -94 -104 -199 -240 -106 -136 -197 -250 -203 -252 -5 -2 -9 5 -8 15 1 11 2 189 1 397 l-1 377 -378 0 c-208 0 -381 -3 -385 -6z m663 -582 c0 -269 3 -491 6 -495 3 -3 41 39 83 93 42 54 150 193 239 309 90 116 168 213 172 216 10 6 17 -3 305 -373 99 -127 183 -231 188 -232 4 0 7 218 7 485 l0 485 280 0 280 0 0 -880 c0 -484 1 -883 3 -887 1 -5 -117 -9 -263 -11 l-265 -2 -260 334 c-143 185 -265 334 -272 333 -6 -1 -46 -48 -90 -104 -43 -55 -159 -205 -257 -332 l-179 -231 -268 0 -269 0 0 890 0 890 280 0 280 0 0 -488z" fill="#6E41FE"></path><path id="pWEnzADgZ" d="M12574 8404 c4 -14 34 -89 67 -167 33 -78 90 -212 126 -297 36 -85 85 -200 108 -255 24 -55 80 -188 125 -295 45 -107 126 -298 180 -425 53 -126 124 -293 156 -370 32 -77 63 -143 69 -147 5 -4 178 -7 384 -5 l374 2 32 75 c18 41 56 131 85 200 29 69 63 149 76 178 13 29 24 54 24 57 0 5 115 278 140 332 11 24 20 45 20 47 0 5 112 272 135 321 7 17 23 54 35 84 11 30 30 73 40 96 10 23 28 66 40 95 12 29 30 72 40 95 10 23 29 66 40 96 12 29 32 76 44 104 12 27 33 77 46 110 13 33 27 65 32 71 4 6 5 14 1 17 -3 4 -183 7 -399 7 l-393 0 -19 -52 c-11 -29 -35 -95 -53 -145 l-34 -93 -312 0 -312 0 -19 43 c-10 23 -36 88 -57 145 l-38 102 -395 0 -394 0 6 -26z m767 -216 l54 -143 386 -3 386 -2 53 145 53 145 283 0 c167 0 284 -4 284 -9 0 -5 -31 -83 -69 -173 -38 -90 -106 -251 -151 -358 -129 -308 -233 -554 -321 -762 -45 -106 -108 -257 -141 -335 l-61 -143 -314 0 -314 0 -28 63 c-28 61 -55 125 -161 377 -29 69 -78 186 -110 260 -32 74 -81 191 -110 260 -29 69 -85 203 -126 298 -41 95 -74 175 -74 177 0 3 -9 24 -19 48 -39 84 -121 280 -121 288 0 5 127 9 283 9 l283 0 55 -142z" fill="#6E41FE"></path><path id="p13nomGss1" d="M13517 7698 c8 -29 19 -60 23 -68 4 -8 24 -60 43 -115 34 -95 163 -448 186 -509 7 -16 14 -27 16 -24 5 5 275 756 275 764 0 2 -126 4 -279 4 l-280 0 16 -52z m393 -62 c0 -25 -124 -356 -131 -349 -6 7 -129 338 -129 348 0 7 39 10 147 10 64 0 113 -4 113 -9z" fill="#6E41FE"></path><path id="pOQ9cY03J" d="M15490 7728 l1 -703 -268 -2 -268 -2 0 -288 0 -288 925 0 925 0 0 288 0 288 -270 2 -270 2 -3 703 -2 702 -385 0 -385 0 0 -702z m672 -100 l3 -703 270 -1 270 -2 0 -183 0 -184 -825 0 -825 0 -3 183 c-1 100 1 182 5 182 5 0 127 1 273 3 l265 2 3 703 2 702 280 0 280 0 2 -702z" fill="#6E41FE"></path><path id="p13tmC0UtQ" d="M18737 8424 c-3 -4 -6 -449 -7 -989 0 -877 2 -983 15 -989 9 -3 182 -5 386 -3 l371 2 -2 338 -1 337 23 0 c13 0 143 1 291 2 173 2 267 -1 267 -7 0 -5 1 -158 3 -340 l2 -330 385 0 385 0 0 990 0 990 -385 0 -385 0 -2 -350 -2 -350 -288 0 c-249 0 -288 2 -289 15 -1 8 -2 167 -3 353 l-1 337 -378 0 c-208 0 -381 -3 -385 -6z m664 -431 c1 -186 2 -345 3 -353 1 -13 51 -15 389 -15 l388 0 2 350 2 350 283 3 282 2 0 -890 0 -890 -282 2 -283 3 -5 333 -5 333 -382 2 c-320 2 -384 0 -388 -12 -3 -8 -5 -158 -5 -335 l1 -321 -280 -3 -281 -2 0 890 0 890 280 0 280 0 1 -337z" fill="#6E41FE"></path><path id="pvd8qeuYh" d="M3530 7532 l0 -70 38 -13 c111 -36 195 -107 236 -202 42 -95 42 -102 -7 -121 -63 -24 -129 -86 -162 -152 -27 -54 -30 -68 -30 -164 0 -91 3 -112 24 -155 34 -68 119 -156 185 -189 153 -78 356 -41 472 86 93 102 124 196 120 358 -6 218 -91 386 -265 524 -127 101 -274 149 -488 162 l-123 7 0 -71z m348 -74 c285 -87 462 -354 422 -635 -13 -93 -43 -158 -100 -212 -72 -71 -175 -100 -274 -77 -146 34 -237 158 -221 298 13 114 69 179 183 215 l54 17 -5 66 c-9 122 -53 213 -151 311 l-51 51 40 -7 c22 -4 68 -16 103 -27z" fill="#6E41FE"></path><path id="poyCJCbu0" d="M4840 5549 c-111 -19 -234 -59 -305 -97 l-50 -27 -3 -313 c-1 -171 0 -312 3 -312 3 0 40 22 83 49 116 72 171 98 262 122 109 28 229 25 261 -8 47 -47 6 -89 -230 -235 -266 -165 -383 -352 -367 -589 16 -240 135 -416 354 -524 99 -48 204 -68 354 -67 204 1 363 56 526 180 l72 55 0 318 c0 176 -3 319 -6 319 -3 0 -43 -34 -87 -76 -87 -82 -215 -170 -284 -197 -68 -26 -144 -29 -182 -6 -75 45 -17 115 205 247 255 152 373 279 419 453 44 165 -16 374 -148 515 -102 109 -221 168 -401 199 -122 20 -340 18 -476 -6z" fill="#6E41FE"></path><path id="pAL2bA32c" d="M17678 5550 c-243 -46 -410 -132 -569 -297 -122 -125 -197 -257 -241 -424 -19 -72 -22 -110 -22 -259 1 -148 4 -187 23 -255 137 -501 535 -781 1094 -769 204 4 346 31 540 101 l97 36 0 349 0 348 -92 -64 c-162 -111 -300 -161 -454 -165 -105 -3 -167 10 -245 51 -128 67 -199 190 -199 349 0 196 129 352 327 394 189 40 404 -9 606 -138 32 -21 62 -37 67 -37 6 0 8 122 7 313 l-2 312 -65 32 c-95 47 -260 99 -382 121 -145 26 -360 27 -490 2z m437 -96 c111 -18 250 -57 330 -92 33 -14 62 -27 63 -28 6 -4 7 -384 1 -384 -3 0 -43 16 -89 36 -216 94 -464 99 -639 13 -77 -38 -179 -136 -215 -206 -79 -157 -77 -356 5 -500 36 -63 133 -155 200 -188 95 -49 257 -70 381 -50 77 12 182 47 260 86 43 22 79 39 80 39 7 0 -2 -424 -9 -430 -26 -22 -215 -73 -328 -88 -245 -34 -426 -20 -629 49 -264 89 -480 331 -558 624 -22 83 -31 300 -17 390 14 87 62 222 104 293 138 235 402 405 680 438 28 4 52 8 55 11 10 9 243 1 325 -13z" fill="#6E41FE"></path><path id="pwVI0SRUi" d="M742 4558 l3 -993 380 0 380 0 3 993 2 992 -385 0 -385 0 2 -992z" fill="#6E41FE"></path><path id="p1EBPOVqHv" d="M2188 4848 l-3 -703 -264 -2 c-145 -1 -265 -4 -268 -6 -2 -2 -5 -131 -6 -286 -2 -274 -1 -282 18 -287 11 -2 427 -3 925 -2 l905 3 0 288 0 288 -267 0 -268 0 0 705 0 704 -385 0 -385 0 -2 -702z" fill="#6E41FE"></path><path id="pFgo8V39O" d="M6770 5541 c0 -5 11 -33 24 -62 13 -30 75 -173 136 -319 62 -146 150 -355 197 -465 46 -110 107 -254 135 -320 28 -66 77 -183 110 -260 32 -77 68 -162 80 -190 11 -27 51 -120 87 -205 l67 -155 379 0 380 0 18 35 c9 19 37 82 61 140 24 58 79 191 124 295 152 363 240 571 292 695 105 251 133 316 156 368 13 29 24 54 24 57 0 5 115 278 140 332 11 24 20 47 20 53 0 7 -132 9 -397 8 l-398 -3 -47 -125 c-26 -69 -49 -133 -51 -142 -5 -17 -29 -18 -320 -18 l-314 0 -33 88 c-19 48 -43 112 -55 142 l-21 55 -397 3 c-228 1 -397 -2 -397 -7z m749 -166 c15 -38 40 -103 55 -143 l28 -72 386 2 386 3 51 140 51 140 287 3 c270 2 286 1 280 -15 -7 -22 -258 -621 -353 -843 -15 -36 -51 -121 -80 -190 -29 -69 -65 -154 -80 -190 -15 -36 -51 -121 -80 -190 -77 -185 -109 -260 -131 -308 l-19 -42 -316 2 -316 3 -24 60 c-13 33 -28 69 -34 80 -14 30 -190 447 -190 451 0 2 -9 23 -20 47 -24 53 -200 468 -200 473 0 2 -11 27 -24 56 -24 53 -58 135 -156 368 -29 69 -61 145 -71 169 -33 76 -51 72 262 69 l281 -3 27 -70z" fill="#6E41FE"></path><path id="pSd45xB7w" d="M7710 4861 c0 -5 43 -128 95 -272 147 -407 178 -489 184 -489 3 0 51 127 105 283 55 155 114 322 133 370 18 49 33 95 33 103 0 12 -45 14 -275 14 -156 0 -275 -4 -275 -9z m404 -113 c-1 -7 -27 -83 -58 -169 -31 -87 -56 -162 -56 -168 0 -35 -21 3 -59 107 -24 64 -54 145 -67 179 -12 34 -21 63 -19 65 2 1 61 2 132 1 99 -1 128 -5 127 -15z" fill="#6E41FE"></path><path id="p1DfWBZNG9" d="M10177 5544 c-3 -4 -6 -449 -7 -989 0 -856 2 -984 15 -988 8 -4 161 -6 340 -6 321 0 325 0 349 22 13 12 117 144 231 292 114 149 215 278 224 288 17 17 22 12 117 -110 55 -70 165 -210 244 -311 l143 -183 336 3 336 3 3 993 2 992 -385 0 -385 0 0 -390 c0 -214 -3 -390 -8 -390 -4 0 -12 8 -18 18 -10 15 -347 446 -364 465 -4 4 -94 -104 -199 -240 -106 -136 -197 -250 -203 -252 -5 -2 -9 5 -8 15 1 11 2 189 1 397 l-1 377 -378 0 c-208 0 -381 -3 -385 -6z m663 -582 c0 -269 3 -491 6 -495 3 -3 41 39 83 93 42 54 150 193 239 309 90 116 168 213 172 216 10 6 17 -3 305 -373 99 -127 183 -231 188 -232 4 0 7 218 7 485 l0 485 280 0 280 0 0 -880 c0 -484 1 -883 3 -887 1 -5 -117 -9 -263 -11 l-265 -2 -260 334 c-143 185 -265 334 -272 333 -6 -1 -46 -48 -90 -104 -43 -55 -159 -205 -257 -332 l-179 -231 -268 0 -269 0 0 890 0 890 280 0 280 0 0 -488z" fill="#6E41FE"></path><path id="p10pzpSElG" d="M12574 5524 c4 -14 34 -89 67 -167 33 -78 90 -212 126 -297 36 -85 85 -200 108 -255 24 -55 80 -188 125 -295 45 -107 126 -298 180 -425 53 -126 124 -293 156 -370 32 -77 63 -143 69 -147 5 -4 178 -7 384 -5 l374 2 32 75 c18 41 56 131 85 200 29 69 63 149 76 178 13 29 24 54 24 57 0 5 115 278 140 332 11 24 20 45 20 47 0 5 112 272 135 321 7 17 23 54 35 84 11 30 30 73 40 96 10 23 28 66 40 95 12 29 30 72 40 95 10 23 29 66 40 96 12 29 32 76 44 104 12 27 33 77 46 110 13 33 27 65 32 71 4 6 5 14 1 17 -3 4 -183 7 -399 7 l-393 0 -19 -52 c-11 -29 -35 -95 -53 -145 l-34 -93 -312 0 -312 0 -19 43 c-10 23 -36 88 -57 145 l-38 102 -395 0 -394 0 6 -26z m767 -216 l54 -143 386 -3 386 -2 53 145 53 145 283 0 c167 0 284 -4 284 -9 0 -5 -31 -83 -69 -173 -38 -90 -106 -251 -151 -358 -129 -308 -233 -554 -321 -762 -45 -106 -108 -257 -141 -335 l-61 -143 -314 0 -314 0 -28 63 c-28 61 -55 125 -161 377 -29 69 -78 186 -110 260 -32 74 -81 191 -110 260 -29 69 -85 203 -126 298 -41 95 -74 175 -74 177 0 3 -9 24 -19 48 -39 84 -121 280 -121 288 0 5 127 9 283 9 l283 0 55 -142z" fill="#6E41FE"></path><path id="pRa1MLQj8" d="M13517 4818 c8 -29 19 -60 23 -68 4 -8 24 -60 43 -115 34 -95 163 -448 186 -509 7 -16 14 -27 16 -24 5 5 275 756 275 764 0 2 -126 4 -279 4 l-280 0 16 -52z m393 -62 c0 -25 -124 -356 -131 -349 -6 7 -129 338 -129 348 0 7 39 10 147 10 64 0 113 -4 113 -9z" fill="#6E41FE"></path><path id="ppAp67I5J" d="M15490 4848 l1 -703 -268 -2 -268 -2 0 -288 0 -288 925 0 925 0 0 288 0 288 -270 2 -270 2 -3 703 -2 702 -385 0 -385 0 0 -702z m672 -100 l3 -703 270 -1 270 -2 0 -183 0 -184 -825 0 -825 0 -3 183 c-1 100 1 182 5 182 5 0 127 1 273 3 l265 2 3 703 2 702 280 0 280 0 2 -702z" fill="#6E41FE"></path><path id="pF7UfLCax" d="M18737 5544 c-3 -4 -6 -449 -7 -989 0 -877 2 -983 15 -989 9 -3 182 -5 386 -3 l371 2 -2 338 -1 337 23 0 c13 0 143 1 291 2 173 2 267 -1 267 -7 0 -5 1 -158 3 -340 l2 -330 385 0 385 0 0 990 0 990 -385 0 -385 0 -2 -350 -2 -350 -288 0 c-249 0 -288 2 -289 15 -1 8 -2 167 -3 353 l-1 337 -378 0 c-208 0 -381 -3 -385 -6z m664 -431 c1 -186 2 -345 3 -353 1 -13 51 -15 389 -15 l388 0 2 350 2 350 283 3 282 2 0 -890 0 -890 -282 2 -283 3 -5 333 -5 333 -382 2 c-320 2 -384 0 -388 -12 -3 -8 -5 -158 -5 -335 l1 -321 -280 -3 -281 -2 0 890 0 890 280 0 280 0 1 -337z" fill="#6E41FE"></path><path id="pQulNrm4m" d="M3530 4652 l0 -70 38 -13 c111 -36 195 -107 236 -202 42 -95 42 -102 -7 -121 -63 -24 -129 -86 -162 -152 -27 -54 -30 -68 -30 -164 0 -91 3 -112 24 -155 34 -68 119 -156 185 -189 153 -78 356 -41 472 86 95 104 125 195 120 362 -7 216 -91 382 -265 520 -127 101 -274 149 -488 162 l-123 7 0 -71z" fill="#6E41FE"></path></g></g></svg>