<svg width="32" height="32" xmlns="http://www.w3.org/2000/svg">

 <g>
  <title>Layer 1</title>
  <path id="svg_1" fill="#FFFFFF" d="m28.32,15.95c0,-0.53 -0.44,-0.88 -0.94,-1c0,0 -3.96,-1.34 -5.43,-2.25c-0.98,-0.48 -1.91,-1.45 -2.5,-2.41l0,0.01c-0.89,-1.16 -2.39,-5.73 -2.39,-5.73c-0.18,-0.59 -0.52,-0.93 -1.05,-0.94l0,0.04l-0.01,-0.04c-0.53,0 -0.88,0.44 -1,0.94c0,0 -1.34,3.96 -2.25,5.43c-0.48,0.98 -1.45,1.91 -2.41,2.5l0.01,0c-1.16,0.89 -5.73,2.39 -5.73,2.39c-0.59,0.18 -0.93,0.52 -0.94,1.05l0.06,0.01l-0.06,0c0,0.53 0.44,0.88 0.94,1c0,0 3.96,1.34 5.43,2.25c0.98,0.48 1.91,1.45 2.5,2.41l0,-0.01c0.89,1.16 2.39,5.73 2.39,5.73c0.18,0.59 0.52,0.93 1.05,0.94l0.01,-0.07l0.01,0.07c0.53,0 0.88,-0.44 1,-0.94c0,0 1.34,-3.96 2.25,-5.43c0.48,-0.98 1.45,-1.91 2.41,-2.5l-0.01,0c1.16,-0.89 5.73,-2.39 5.73,-2.39c0.59,-0.18 0.93,-0.52 0.94,-1.05l-0.08,-0.01l0.07,0z"/>
 </g>
</svg>