<?xml version="1.0"?>
<svg xmlns="http://www.w3.org/2000/svg" viewBox="0 0 26 26" enable-background="0 0 26 26">
    <path d="M13,25c6.6,0,12-5.4,12-12c0-6.6-5.4-12-12-12S1,6.4,1,13C1,19.6,6.4,25,13,25z M7.4,11.8c2-2.9,5-5.6,5.2-5.7 C12.7,6.1,12.8,6,13,6s0.3,0.1,0.5,0.2c0.1,0.1,3.2,2.8,5.2,5.7c0.2,0.2,0.2,0.5,0,0.8C18.5,12.8,18.3,13,18,13h-2.6 c0,0-0.3,6.1-0.5,6.4C14.6,19.7,13.8,20,13,20c-0.7,0-1.5-0.3-1.8-0.6C11,19.1,10.6,13,10.6,13H8c-0.3,0-0.5-0.1-0.6-0.4 C7.2,12.4,7.2,12.1,7.4,11.8z"/>
</svg>
